{
	"asset":{
		"generator":"Khronos glTF Blender I/O v3.5.30",
		"version":"2.0"
	},
	"extensionsUsed":[
		"KHR_materials_specular",
		"KHR_materials_ior"
	],
	"scene":0,
	"scenes":[
		{
			"name":"Scene",
			"nodes":[
				0
			]
		}
	],
	"nodes":[
		{
			"mesh":0,
			"name":"bananaMan",
			"rotation":[
				0,
				-0.7071068286895752,
				0,
				0.7071068286895752
			],
			"translation":[
				-0.010200336575508118,
				0.9239909648895264,
				0.1938066929578781
			]
		}
	],
	"materials":[
		{
			"doubleSided":true,
			"extensions":{
				"KHR_materials_specular":{
					"specularColorFactor":[
						0,
						0,
						0
					]
				},
				"KHR_materials_ior":{
					"ior":1.4500000476837158
				}
			},
			"name":"bananaPeel",
			"pbrMetallicRoughness":{
				"baseColorFactor":[
					0.8000000715255737,
					0.45530784130096436,
					0.13032197952270508,
					1
				],
				"metallicFactor":0,
				"roughnessFactor":0.5
			}
		},
		{
			"doubleSided":true,
			"name":"bananaTip",
			"pbrMetallicRoughness":{
				"baseColorFactor":[
					0.17886191606521606,
					0.07187376171350479,
					0.008801426738500595,
					1
				],
				"metallicFactor":0,
				"roughnessFactor":0.5
			}
		},
		{
			"doubleSided":true,
			"name":"eyeWhite",
			"pbrMetallicRoughness":{
				"baseColorFactor":[
					0.800000011920929,
					0.800000011920929,
					0.800000011920929,
					1
				],
				"metallicFactor":0,
				"roughnessFactor":0.5
			}
		},
		{
			"doubleSided":true,
			"name":"iris",
			"pbrMetallicRoughness":{
				"baseColorFactor":[
					0.011375200003385544,
					0.16192521154880524,
					0.8000000715255737,
					1
				],
				"metallicFactor":0,
				"roughnessFactor":0.5
			}
		},
		{
			"doubleSided":true,
			"name":"eyeBrow",
			"pbrMetallicRoughness":{
				"baseColorFactor":[
					0.04445471614599228,
					0.017123710364103317,
					0.0031762830913066864,
					1
				],
				"metallicFactor":0,
				"roughnessFactor":0.5
			}
		},
		{
			"doubleSided":true,
			"name":"shoe",
			"pbrMetallicRoughness":{
				"baseColorFactor":[
					0.8000000715255737,
					0.10245389491319656,
					0.06025325506925583,
					1
				],
				"metallicFactor":0,
				"roughnessFactor":0.5
			}
		},
		{
			"doubleSided":true,
			"name":"sock",
			"pbrMetallicRoughness":{
				"baseColorFactor":[
					0.10677879303693771,
					0.3856339752674103,
					0.8000000715255737,
					1
				],
				"metallicFactor":0,
				"roughnessFactor":0.5
			}
		},
		{
			"doubleSided":true,
			"name":"skin",
			"pbrMetallicRoughness":{
				"baseColorFactor":[
					0.8000000715255737,
					0.6106835007667542,
					0.44081738591194153,
					1
				],
				"metallicFactor":0,
				"roughnessFactor":0.5
			}
		}
	],
	"meshes":[
		{
			"name":"Cylinder",
			"primitives":[
				{
					"attributes":{
						"POSITION":0,
						"TEXCOORD_0":1,
						"NORMAL":2
					},
					"indices":3,
					"material":0
				},
				{
					"attributes":{
						"POSITION":4,
						"TEXCOORD_0":5,
						"NORMAL":6
					},
					"indices":7,
					"material":1
				},
				{
					"attributes":{
						"POSITION":8,
						"TEXCOORD_0":9,
						"NORMAL":10
					},
					"indices":11,
					"material":2
				},
				{
					"attributes":{
						"POSITION":12,
						"TEXCOORD_0":13,
						"NORMAL":14
					},
					"indices":15,
					"material":3
				},
				{
					"attributes":{
						"POSITION":16,
						"TEXCOORD_0":17,
						"NORMAL":18
					},
					"indices":19,
					"material":4
				},
				{
					"attributes":{
						"POSITION":20,
						"TEXCOORD_0":21,
						"NORMAL":22
					},
					"indices":23,
					"material":5
				},
				{
					"attributes":{
						"POSITION":24,
						"TEXCOORD_0":25,
						"NORMAL":26
					},
					"indices":27,
					"material":6
				},
				{
					"attributes":{
						"POSITION":28,
						"TEXCOORD_0":29,
						"NORMAL":30
					},
					"indices":31,
					"material":7
				}
			]
		}
	],
	"accessors":[
		{
			"bufferView":0,
			"componentType":5126,
			"count":447,
			"max":[
				1.3223180770874023,
				2.8619296550750732,
				1.4542142152786255
			],
			"min":[
				-0.5181788206100464,
				-2.9478063583374023,
				-1.4542142152786255
			],
			"type":"VEC3"
		},
		{
			"bufferView":1,
			"componentType":5126,
			"count":447,
			"type":"VEC2"
		},
		{
			"bufferView":2,
			"componentType":5126,
			"count":447,
			"type":"VEC3"
		},
		{
			"bufferView":3,
			"componentType":5123,
			"count":2394,
			"type":"SCALAR"
		},
		{
			"bufferView":4,
			"componentType":5126,
			"count":52,
			"max":[
				1.395249843597412,
				3.299471378326416,
				0.15337882936000824
			],
			"min":[
				0.9501511454582214,
				2.70890736579895,
				-0.15337882936000824
			],
			"type":"VEC3"
		},
		{
			"bufferView":5,
			"componentType":5126,
			"count":52,
			"type":"VEC2"
		},
		{
			"bufferView":6,
			"componentType":5126,
			"count":52,
			"type":"VEC3"
		},
		{
			"bufferView":7,
			"componentType":5123,
			"count":258,
			"type":"SCALAR"
		},
		{
			"bufferView":8,
			"componentType":5126,
			"count":182,
			"max":[
				0.8905271291732788,
				1.2924679517745972,
				0.4222707152366638
			],
			"min":[
				0.6073929667472839,
				0.9043852090835571,
				-0.4222707152366638
			],
			"type":"VEC3"
		},
		{
			"bufferView":9,
			"componentType":5126,
			"count":182,
			"type":"VEC2"
		},
		{
			"bufferView":10,
			"componentType":5126,
			"count":182,
			"type":"VEC3"
		},
		{
			"bufferView":11,
			"componentType":5123,
			"count":864,
			"type":"SCALAR"
		},
		{
			"bufferView":12,
			"componentType":5126,
			"count":76,
			"max":[
				0.893050491809845,
				1.1379948854446411,
				0.3215455412864685
			],
			"min":[
				0.8565056324005127,
				0.990969717502594,
				-0.3215455412864685
			],
			"type":"VEC3"
		},
		{
			"bufferView":13,
			"componentType":5126,
			"count":76,
			"type":"VEC2"
		},
		{
			"bufferView":14,
			"componentType":5126,
			"count":76,
			"type":"VEC3"
		},
		{
			"bufferView":15,
			"componentType":5123,
			"count":216,
			"type":"SCALAR"
		},
		{
			"bufferView":16,
			"componentType":5126,
			"count":86,
			"max":[
				0.9465571045875549,
				1.4817264080047607,
				0.42742612957954407
			],
			"min":[
				0.5140499472618103,
				0.09283028542995453,
				-0.42742612957954407
			],
			"type":"VEC3"
		},
		{
			"bufferView":17,
			"componentType":5126,
			"count":86,
			"type":"VEC2"
		},
		{
			"bufferView":18,
			"componentType":5126,
			"count":86,
			"type":"VEC3"
		},
		{
			"bufferView":19,
			"componentType":5123,
			"count":252,
			"type":"SCALAR"
		},
		{
			"bufferView":20,
			"componentType":5126,
			"count":40,
			"max":[
				1.6907480955123901,
				-3.2468931674957275,
				2.0119576454162598
			],
			"min":[
				-0.43421435356140137,
				-3.7131741046905518,
				-2.0119576454162598
			],
			"type":"VEC3"
		},
		{
			"bufferView":21,
			"componentType":5126,
			"count":40,
			"type":"VEC2"
		},
		{
			"bufferView":22,
			"componentType":5126,
			"count":40,
			"type":"VEC3"
		},
		{
			"bufferView":23,
			"componentType":5123,
			"count":204,
			"type":"SCALAR"
		},
		{
			"bufferView":24,
			"componentType":5126,
			"count":32,
			"max":[
				0.16621103882789612,
				-2.9478063583374023,
				1.5875720977783203
			],
			"min":[
				-0.41927599906921387,
				-3.3033432960510254,
				-1.5875720977783203
			],
			"type":"VEC3"
		},
		{
			"bufferView":25,
			"componentType":5126,
			"count":32,
			"type":"VEC2"
		},
		{
			"bufferView":26,
			"componentType":5126,
			"count":32,
			"type":"VEC3"
		},
		{
			"bufferView":27,
			"componentType":5123,
			"count":132,
			"type":"SCALAR"
		},
		{
			"bufferView":28,
			"componentType":5126,
			"count":272,
			"max":[
				0.2767672538757324,
				0.7770955562591553,
				3.2923178672790527
			],
			"min":[
				-0.890573263168335,
				-2.9478063583374023,
				-3.2923178672790527
			],
			"type":"VEC3"
		},
		{
			"bufferView":29,
			"componentType":5126,
			"count":272,
			"type":"VEC2"
		},
		{
			"bufferView":30,
			"componentType":5126,
			"count":272,
			"type":"VEC3"
		},
		{
			"bufferView":31,
			"componentType":5123,
			"count":1488,
			"type":"SCALAR"
		}
	],
	"bufferViews":[
		{
			"buffer":0,
			"byteLength":5364,
			"byteOffset":0,
			"target":34962
		},
		{
			"buffer":0,
			"byteLength":3576,
			"byteOffset":5364,
			"target":34962
		},
		{
			"buffer":0,
			"byteLength":5364,
			"byteOffset":8940,
			"target":34962
		},
		{
			"buffer":0,
			"byteLength":4788,
			"byteOffset":14304,
			"target":34963
		},
		{
			"buffer":0,
			"byteLength":624,
			"byteOffset":19092,
			"target":34962
		},
		{
			"buffer":0,
			"byteLength":416,
			"byteOffset":19716,
			"target":34962
		},
		{
			"buffer":0,
			"byteLength":624,
			"byteOffset":20132,
			"target":34962
		},
		{
			"buffer":0,
			"byteLength":516,
			"byteOffset":20756,
			"target":34963
		},
		{
			"buffer":0,
			"byteLength":2184,
			"byteOffset":21272,
			"target":34962
		},
		{
			"buffer":0,
			"byteLength":1456,
			"byteOffset":23456,
			"target":34962
		},
		{
			"buffer":0,
			"byteLength":2184,
			"byteOffset":24912,
			"target":34962
		},
		{
			"buffer":0,
			"byteLength":1728,
			"byteOffset":27096,
			"target":34963
		},
		{
			"buffer":0,
			"byteLength":912,
			"byteOffset":28824,
			"target":34962
		},
		{
			"buffer":0,
			"byteLength":608,
			"byteOffset":29736,
			"target":34962
		},
		{
			"buffer":0,
			"byteLength":912,
			"byteOffset":30344,
			"target":34962
		},
		{
			"buffer":0,
			"byteLength":432,
			"byteOffset":31256,
			"target":34963
		},
		{
			"buffer":0,
			"byteLength":1032,
			"byteOffset":31688,
			"target":34962
		},
		{
			"buffer":0,
			"byteLength":688,
			"byteOffset":32720,
			"target":34962
		},
		{
			"buffer":0,
			"byteLength":1032,
			"byteOffset":33408,
			"target":34962
		},
		{
			"buffer":0,
			"byteLength":504,
			"byteOffset":34440,
			"target":34963
		},
		{
			"buffer":0,
			"byteLength":480,
			"byteOffset":34944,
			"target":34962
		},
		{
			"buffer":0,
			"byteLength":320,
			"byteOffset":35424,
			"target":34962
		},
		{
			"buffer":0,
			"byteLength":480,
			"byteOffset":35744,
			"target":34962
		},
		{
			"buffer":0,
			"byteLength":408,
			"byteOffset":36224,
			"target":34963
		},
		{
			"buffer":0,
			"byteLength":384,
			"byteOffset":36632,
			"target":34962
		},
		{
			"buffer":0,
			"byteLength":256,
			"byteOffset":37016,
			"target":34962
		},
		{
			"buffer":0,
			"byteLength":384,
			"byteOffset":37272,
			"target":34962
		},
		{
			"buffer":0,
			"byteLength":264,
			"byteOffset":37656,
			"target":34963
		},
		{
			"buffer":0,
			"byteLength":3264,
			"byteOffset":37920,
			"target":34962
		},
		{
			"buffer":0,
			"byteLength":2176,
			"byteOffset":41184,
			"target":34962
		},
		{
			"buffer":0,
			"byteLength":3264,
			"byteOffset":43360,
			"target":34962
		},
		{
			"buffer":0,
			"byteLength":2976,
			"byteOffset":46624,
			"target":34963
		}
	],
	"buffers":[
		{
			"byteLength":49600,
			"uri":"data:application/octet-stream;base64,"
		}
	]
}
