{
	"asset":{
		"copyright":"Monstrous Software",
		"generator":"Khronos glTF Blender I/O v3.5.30",
		"version":"2.0"
	},
	"extensionsUsed":[
		"KHR_materials_specular",
		"KHR_materials_ior",
		"KHR_materials_emissive_strength"
	],
	"scene":0,
	"scenes":[
		{
			"name":"Scene",
			"nodes":[
				0,
				1,
				2,
				3,
				4,
				5
			]
		}
	],
	"nodes":[
		{
			"mesh":0,
			"name":"submarine",
			"rotation":[
				0.7071068286895752,
				0,
				0,
				0.7071068286895752
			],
			"translation":[
				0,
				0,
				-1.598470687866211
			]
		},
		{
			"mesh":1,
			"name":"fins",
			"scale":[
				0.32493355870246887,
				0.06603458523750305,
				0.32493355870246887
			],
			"translation":[
				1.5285871028900146,
				0,
				0
			]
		},
		{
			"mesh":2,
			"name":"screw",
			"rotation":[
				-0.7071068286895752,
				0,
				0,
				0.7071068286895752
			],
			"scale":[
				0.24633967876434326,
				0.13918761909008026,
				0.24633967876434326
			],
			"translation":[
				0,
				0,
				-2.470564842224121
			]
		},
		{
			"mesh":3,
			"name":"capsule",
			"scale":[
				0.1741563081741333,
				0.08707815408706665,
				0.1741563081741333
			],
			"translation":[
				0,
				0.27527838945388794,
				0
			]
		},
		{
			"mesh":4,
			"name":"Plane"
		},
		{
			"mesh":5,
			"name":"rudder",
			"rotation":[
				0,
				0,
				-0.7071068286895752,
				0.7071068286895752
			],
			"scale":[
				0.32493355870246887,
				0.06603458523750305,
				0.32493355870246887
			],
			"translation":[
				-0.004012465476989746,
				-1.6919896602630615,
				-1.8145979642868042
			]
		}
	],
	"materials":[
		{
			"doubleSided":true,
			"extensions":{
				"KHR_materials_specular":{
					"specularColorFactor":[
						1.4697477352319674,
						1.4697477352319674,
						1.4697477352319674
					]
				},
				"KHR_materials_ior":{
					"ior":1.4500000476837158
				}
			},
			"name":"submarineSkin",
			"pbrMetallicRoughness":{
				"baseColorFactor":[
					0.8000000715255737,
					0.5197991132736206,
					0.06102040782570839,
					1
				],
				"metallicFactor":0.20431238412857056,
				"roughnessFactor":0.5677083134651184
			}
		},
		{
			"doubleSided":true,
			"name":"window",
			"pbrMetallicRoughness":{
				"baseColorFactor":[
					0.1745804250240326,
					0.5861997008323669,
					0.8000000715255737,
					1
				],
				"metallicFactor":0,
				"roughnessFactor":0.5
			}
		},
		{
			"doubleSided":true,
			"extensions":{
				"KHR_materials_specular":{
					"specularColorFactor":[
						1.1486263444950522,
						1.1486263444950522,
						1.1486263444950522
					]
				},
				"KHR_materials_ior":{
					"ior":1.4500000476837158
				}
			},
			"name":"metalBand",
			"pbrMetallicRoughness":{
				"baseColorFactor":[
					0.1844688206911087,
					0.1844688206911087,
					0.1844688206911087,
					1
				],
				"metallicFactor":0.3868469297885895,
				"roughnessFactor":0.0885416567325592
			}
		},
		{
			"doubleSided":true,
			"name":"Lettering",
			"pbrMetallicRoughness":{
				"baseColorFactor":[
					0.02950521931052208,
					0.10357028990983963,
					0.19017791748046875,
					1
				],
				"metallicFactor":0,
				"roughnessFactor":0.5
			}
		},
		{
			"doubleSided":true,
			"emissiveFactor":[
				1,
				0.007908113300800323,
				0.033213816583156586
			],
			"extensions":{
				"KHR_materials_emissive_strength":{
					"emissiveStrength":28.89999771118164
				}
			},
			"name":"signalGlass",
			"pbrMetallicRoughness":{
				"baseColorFactor":[
					0.8000000715255737,
					0.017943674698472023,
					0.011298926547169685,
					1
				],
				"metallicFactor":0,
				"roughnessFactor":0.5
			}
		}
	],
	"meshes":[
		{
			"name":"Sphere",
			"primitives":[
				{
					"attributes":{
						"POSITION":0,
						"TEXCOORD_0":1,
						"NORMAL":2
					},
					"indices":3,
					"material":0
				},
				{
					"attributes":{
						"POSITION":4,
						"TEXCOORD_0":5,
						"NORMAL":6
					},
					"indices":7,
					"material":1
				},
				{
					"attributes":{
						"POSITION":8,
						"TEXCOORD_0":9,
						"NORMAL":10
					},
					"indices":11,
					"material":2
				},
				{
					"attributes":{
						"POSITION":12,
						"TEXCOORD_0":13,
						"NORMAL":14
					},
					"indices":15,
					"material":3
				}
			]
		},
		{
			"name":"Cube.001",
			"primitives":[
				{
					"attributes":{
						"POSITION":16,
						"TEXCOORD_0":17,
						"NORMAL":18
					},
					"indices":19,
					"material":2
				}
			]
		},
		{
			"name":"Cylinder",
			"primitives":[
				{
					"attributes":{
						"POSITION":20,
						"TEXCOORD_0":21,
						"NORMAL":22
					},
					"indices":23,
					"material":2
				}
			]
		},
		{
			"name":"Cylinder.001",
			"primitives":[
				{
					"attributes":{
						"POSITION":24,
						"TEXCOORD_0":25,
						"NORMAL":26
					},
					"indices":27,
					"material":0
				},
				{
					"attributes":{
						"POSITION":28,
						"TEXCOORD_0":29,
						"NORMAL":30
					},
					"indices":31,
					"material":2
				},
				{
					"attributes":{
						"POSITION":32,
						"TEXCOORD_0":33,
						"NORMAL":34
					},
					"indices":35,
					"material":4
				}
			]
		},
		{
			"name":"Plane",
			"primitives":[
				{
					"attributes":{
						"POSITION":36,
						"TEXCOORD_0":37,
						"NORMAL":38
					},
					"indices":39
				}
			]
		},
		{
			"name":"Cube.002",
			"primitives":[
				{
					"attributes":{
						"POSITION":40,
						"TEXCOORD_0":41,
						"NORMAL":42
					},
					"indices":43,
					"material":2
				}
			]
		}
	],
	"accessors":[
		{
			"bufferView":0,
			"componentType":5126,
			"count":1219,
			"max":[
				1.0576835870742798,
				4.298780918121338,
				1.0576832294464111
			],
			"min":[
				-1.0576831102371216,
				-0.7319786548614502,
				-1.6546947956085205
			],
			"type":"VEC3"
		},
		{
			"bufferView":1,
			"componentType":5126,
			"count":1219,
			"type":"VEC2"
		},
		{
			"bufferView":2,
			"componentType":5126,
			"count":1219,
			"type":"VEC3"
		},
		{
			"bufferView":3,
			"componentType":5123,
			"count":5160,
			"type":"SCALAR"
		},
		{
			"bufferView":4,
			"componentType":5126,
			"count":10,
			"max":[
				0.2595852017402649,
				2.603668212890625,
				-1.1257685422897339
			],
			"min":[
				-0.25958502292633057,
				2.517805814743042,
				-1.3051731586456299
			],
			"type":"VEC3"
		},
		{
			"bufferView":5,
			"componentType":5126,
			"count":10,
			"type":"VEC2"
		},
		{
			"bufferView":6,
			"componentType":5126,
			"count":10,
			"type":"VEC3"
		},
		{
			"bufferView":7,
			"componentType":5123,
			"count":24,
			"type":"SCALAR"
		},
		{
			"bufferView":8,
			"componentType":5126,
			"count":1780,
			"max":[
				0.9607298970222473,
				3.3270955085754395,
				0.9607295989990234
			],
			"min":[
				-0.960729718208313,
				0.1653786152601242,
				-2.372837781906128
			],
			"type":"VEC3"
		},
		{
			"bufferView":9,
			"componentType":5126,
			"count":1780,
			"type":"VEC2"
		},
		{
			"bufferView":10,
			"componentType":5126,
			"count":1780,
			"type":"VEC3"
		},
		{
			"bufferView":11,
			"componentType":5123,
			"count":3936,
			"type":"SCALAR"
		},
		{
			"bufferView":12,
			"componentType":5126,
			"count":31045,
			"max":[
				0.452205091714859,
				1.9441163539886475,
				-1.0961087942123413
			],
			"min":[
				-0.4283827841281891,
				1.5444207191467285,
				-1.2325499057769775
			],
			"type":"VEC3"
		},
		{
			"bufferView":13,
			"componentType":5126,
			"count":31045,
			"type":"VEC2"
		},
		{
			"bufferView":14,
			"componentType":5126,
			"count":31045,
			"type":"VEC3"
		},
		{
			"bufferView":15,
			"componentType":5123,
			"count":42888,
			"type":"SCALAR"
		},
		{
			"bufferView":16,
			"componentType":5126,
			"count":158,
			"max":[
				1.4532029628753662,
				0.9209963083267212,
				1
			],
			"min":[
				-10.86181640625,
				-0.9209963083267212,
				-1.0949941873550415
			],
			"type":"VEC3"
		},
		{
			"bufferView":17,
			"componentType":5126,
			"count":158,
			"type":"VEC2"
		},
		{
			"bufferView":18,
			"componentType":5126,
			"count":158,
			"type":"VEC3"
		},
		{
			"bufferView":19,
			"componentType":5123,
			"count":384,
			"type":"SCALAR"
		},
		{
			"bufferView":20,
			"componentType":5126,
			"count":693,
			"max":[
				1.9275044202804565,
				0.266789048910141,
				1.9275044202804565
			],
			"min":[
				-1.9275044202804565,
				-1.0014640092849731,
				-1.9275044202804565
			],
			"type":"VEC3"
		},
		{
			"bufferView":21,
			"componentType":5126,
			"count":693,
			"type":"VEC2"
		},
		{
			"bufferView":22,
			"componentType":5126,
			"count":693,
			"type":"VEC3"
		},
		{
			"bufferView":23,
			"componentType":5123,
			"count":1986,
			"type":"SCALAR"
		},
		{
			"bufferView":24,
			"componentType":5126,
			"count":552,
			"max":[
				1.1853410005569458,
				4.273080348968506,
				1.2463412284851074
			],
			"min":[
				-1.1853410005569458,
				-8.022147178649902,
				-1.2463412284851074
			],
			"type":"VEC3"
		},
		{
			"bufferView":25,
			"componentType":5126,
			"count":552,
			"type":"VEC2"
		},
		{
			"bufferView":26,
			"componentType":5126,
			"count":552,
			"type":"VEC3"
		},
		{
			"bufferView":27,
			"componentType":5123,
			"count":1074,
			"type":"SCALAR"
		},
		{
			"bufferView":28,
			"componentType":5126,
			"count":262,
			"max":[
				0.9510565400123596,
				2.5,
				1
			],
			"min":[
				-0.9510565400123596,
				-7.449643611907959,
				-1
			],
			"type":"VEC3"
		},
		{
			"bufferView":29,
			"componentType":5126,
			"count":262,
			"type":"VEC2"
		},
		{
			"bufferView":30,
			"componentType":5126,
			"count":262,
			"type":"VEC3"
		},
		{
			"bufferView":31,
			"componentType":5123,
			"count":570,
			"type":"SCALAR"
		},
		{
			"bufferView":32,
			"componentType":5126,
			"count":40,
			"max":[
				0.706148624420166,
				4.098778247833252,
				0.7424886226654053
			],
			"min":[
				-0.706148624420166,
				2.5,
				-0.7424886226654053
			],
			"type":"VEC3"
		},
		{
			"bufferView":33,
			"componentType":5126,
			"count":40,
			"type":"VEC2"
		},
		{
			"bufferView":34,
			"componentType":5126,
			"count":40,
			"type":"VEC3"
		},
		{
			"bufferView":35,
			"componentType":5123,
			"count":60,
			"type":"SCALAR"
		},
		{
			"bufferView":36,
			"componentType":5126,
			"count":4,
			"max":[
				1,
				0,
				1
			],
			"min":[
				-1,
				0,
				-1
			],
			"type":"VEC3"
		},
		{
			"bufferView":37,
			"componentType":5126,
			"count":4,
			"type":"VEC2"
		},
		{
			"bufferView":38,
			"componentType":5126,
			"count":4,
			"type":"VEC3"
		},
		{
			"bufferView":39,
			"componentType":5123,
			"count":6,
			"type":"SCALAR"
		},
		{
			"bufferView":40,
			"componentType":5126,
			"count":184,
			"max":[
				-0.8627395629882812,
				0.9209963083267212,
				1
			],
			"min":[
				-9.551633834838867,
				-0.9209997057914734,
				-1.0949946641921997
			],
			"type":"VEC3"
		},
		{
			"bufferView":41,
			"componentType":5126,
			"count":184,
			"type":"VEC2"
		},
		{
			"bufferView":42,
			"componentType":5126,
			"count":184,
			"type":"VEC3"
		},
		{
			"bufferView":43,
			"componentType":5123,
			"count":480,
			"type":"SCALAR"
		}
	],
	"bufferViews":[
		{
			"buffer":0,
			"byteLength":14628,
			"byteOffset":0,
			"target":34962
		},
		{
			"buffer":0,
			"byteLength":9752,
			"byteOffset":14628,
			"target":34962
		},
		{
			"buffer":0,
			"byteLength":14628,
			"byteOffset":24380,
			"target":34962
		},
		{
			"buffer":0,
			"byteLength":10320,
			"byteOffset":39008,
			"target":34963
		},
		{
			"buffer":0,
			"byteLength":120,
			"byteOffset":49328,
			"target":34962
		},
		{
			"buffer":0,
			"byteLength":80,
			"byteOffset":49448,
			"target":34962
		},
		{
			"buffer":0,
			"byteLength":120,
			"byteOffset":49528,
			"target":34962
		},
		{
			"buffer":0,
			"byteLength":48,
			"byteOffset":49648,
			"target":34963
		},
		{
			"buffer":0,
			"byteLength":21360,
			"byteOffset":49696,
			"target":34962
		},
		{
			"buffer":0,
			"byteLength":14240,
			"byteOffset":71056,
			"target":34962
		},
		{
			"buffer":0,
			"byteLength":21360,
			"byteOffset":85296,
			"target":34962
		},
		{
			"buffer":0,
			"byteLength":7872,
			"byteOffset":106656,
			"target":34963
		},
		{
			"buffer":0,
			"byteLength":372540,
			"byteOffset":114528,
			"target":34962
		},
		{
			"buffer":0,
			"byteLength":248360,
			"byteOffset":487068,
			"target":34962
		},
		{
			"buffer":0,
			"byteLength":372540,
			"byteOffset":735428,
			"target":34962
		},
		{
			"buffer":0,
			"byteLength":85776,
			"byteOffset":1107968,
			"target":34963
		},
		{
			"buffer":0,
			"byteLength":1896,
			"byteOffset":1193744,
			"target":34962
		},
		{
			"buffer":0,
			"byteLength":1264,
			"byteOffset":1195640,
			"target":34962
		},
		{
			"buffer":0,
			"byteLength":1896,
			"byteOffset":1196904,
			"target":34962
		},
		{
			"buffer":0,
			"byteLength":768,
			"byteOffset":1198800,
			"target":34963
		},
		{
			"buffer":0,
			"byteLength":8316,
			"byteOffset":1199568,
			"target":34962
		},
		{
			"buffer":0,
			"byteLength":5544,
			"byteOffset":1207884,
			"target":34962
		},
		{
			"buffer":0,
			"byteLength":8316,
			"byteOffset":1213428,
			"target":34962
		},
		{
			"buffer":0,
			"byteLength":3972,
			"byteOffset":1221744,
			"target":34963
		},
		{
			"buffer":0,
			"byteLength":6624,
			"byteOffset":1225716,
			"target":34962
		},
		{
			"buffer":0,
			"byteLength":4416,
			"byteOffset":1232340,
			"target":34962
		},
		{
			"buffer":0,
			"byteLength":6624,
			"byteOffset":1236756,
			"target":34962
		},
		{
			"buffer":0,
			"byteLength":2148,
			"byteOffset":1243380,
			"target":34963
		},
		{
			"buffer":0,
			"byteLength":3144,
			"byteOffset":1245528,
			"target":34962
		},
		{
			"buffer":0,
			"byteLength":2096,
			"byteOffset":1248672,
			"target":34962
		},
		{
			"buffer":0,
			"byteLength":3144,
			"byteOffset":1250768,
			"target":34962
		},
		{
			"buffer":0,
			"byteLength":1140,
			"byteOffset":1253912,
			"target":34963
		},
		{
			"buffer":0,
			"byteLength":480,
			"byteOffset":1255052,
			"target":34962
		},
		{
			"buffer":0,
			"byteLength":320,
			"byteOffset":1255532,
			"target":34962
		},
		{
			"buffer":0,
			"byteLength":480,
			"byteOffset":1255852,
			"target":34962
		},
		{
			"buffer":0,
			"byteLength":120,
			"byteOffset":1256332,
			"target":34963
		},
		{
			"buffer":0,
			"byteLength":48,
			"byteOffset":1256452,
			"target":34962
		},
		{
			"buffer":0,
			"byteLength":32,
			"byteOffset":1256500,
			"target":34962
		},
		{
			"buffer":0,
			"byteLength":48,
			"byteOffset":1256532,
			"target":34962
		},
		{
			"buffer":0,
			"byteLength":12,
			"byteOffset":1256580,
			"target":34963
		},
		{
			"buffer":0,
			"byteLength":2208,
			"byteOffset":1256592,
			"target":34962
		},
		{
			"buffer":0,
			"byteLength":1472,
			"byteOffset":1258800,
			"target":34962
		},
		{
			"buffer":0,
			"byteLength":2208,
			"byteOffset":1260272,
			"target":34962
		},
		{
			"buffer":0,
			"byteLength":960,
			"byteOffset":1262480,
			"target":34963
		}
	],
	"buffers":[
		{
			"byteLength":1263440,
			"uri":"data:application/octet-stream;base64,"
		}
	]
}
