{
	"asset":{
		"copyright":"Monstrous Software",
		"generator":"Khronos glTF Blender I/O v3.5.30",
		"version":"2.0"
	},
	"extensionsUsed":[
		"KHR_materials_specular",
		"KHR_materials_ior"
	],
	"scene":0,
	"scenes":[
		{
			"name":"Scene",
			"nodes":[
				0,
				1,
				2
			]
		}
	],
	"nodes":[
		{
			"mesh":0,
			"name":"submarine",
			"rotation":[
				0.7071068286895752,
				0,
				0,
				0.7071068286895752
			],
			"translation":[
				0,
				0,
				-1.598470687866211
			]
		},
		{
			"mesh":1,
			"name":"fins",
			"scale":[
				0.32493355870246887,
				0.06603458523750305,
				0.32493355870246887
			],
			"translation":[
				1.5285871028900146,
				0,
				0
			]
		},
		{
			"mesh":2,
			"name":"screw",
			"rotation":[
				-0.7071068286895752,
				0,
				0,
				0.7071068286895752
			],
			"scale":[
				0.24633967876434326,
				0.13918761909008026,
				0.24633967876434326
			],
			"translation":[
				0,
				0,
				-2.470564842224121
			]
		}
	],
	"materials":[
		{
			"doubleSided":true,
			"extensions":{
				"KHR_materials_specular":{
					"specularColorFactor":[
						1.4697477352319674,
						1.4697477352319674,
						1.4697477352319674
					]
				},
				"KHR_materials_ior":{
					"ior":1.4500000476837158
				}
			},
			"name":"submarineSkin",
			"pbrMetallicRoughness":{
				"baseColorFactor":[
					0.8000000715255737,
					0.5197991132736206,
					0.06102040782570839,
					1
				],
				"metallicFactor":0.20431238412857056,
				"roughnessFactor":0.5677083134651184
			}
		},
		{
			"doubleSided":true,
			"name":"window",
			"pbrMetallicRoughness":{
				"baseColorFactor":[
					0.1745804250240326,
					0.5861997008323669,
					0.8000000715255737,
					1
				],
				"metallicFactor":0,
				"roughnessFactor":0.5
			}
		},
		{
			"doubleSided":true,
			"extensions":{
				"KHR_materials_specular":{
					"specularColorFactor":[
						1.1486263444950522,
						1.1486263444950522,
						1.1486263444950522
					]
				},
				"KHR_materials_ior":{
					"ior":1.4500000476837158
				}
			},
			"name":"metalBand",
			"pbrMetallicRoughness":{
				"baseColorFactor":[
					0.1844688206911087,
					0.1844688206911087,
					0.1844688206911087,
					1
				],
				"metallicFactor":0.3868469297885895,
				"roughnessFactor":0.0885416567325592
			}
		},
		{
			"doubleSided":true,
			"name":"Lettering",
			"pbrMetallicRoughness":{
				"baseColorFactor":[
					0.02950521931052208,
					0.10357028990983963,
					0.19017791748046875,
					1
				],
				"metallicFactor":0,
				"roughnessFactor":0.5
			}
		}
	],
	"meshes":[
		{
			"name":"Sphere",
			"primitives":[
				{
					"attributes":{
						"POSITION":0,
						"TEXCOORD_0":1,
						"NORMAL":2
					},
					"indices":3,
					"material":0
				},
				{
					"attributes":{
						"POSITION":4,
						"TEXCOORD_0":5,
						"NORMAL":6
					},
					"indices":7,
					"material":1
				},
				{
					"attributes":{
						"POSITION":8,
						"TEXCOORD_0":9,
						"NORMAL":10
					},
					"indices":11,
					"material":2
				},
				{
					"attributes":{
						"POSITION":12,
						"TEXCOORD_0":13,
						"NORMAL":14
					},
					"indices":15,
					"material":3
				}
			]
		},
		{
			"name":"Cube.001",
			"primitives":[
				{
					"attributes":{
						"POSITION":16,
						"TEXCOORD_0":17,
						"NORMAL":18
					},
					"indices":19,
					"material":2
				}
			]
		},
		{
			"name":"Cylinder",
			"primitives":[
				{
					"attributes":{
						"POSITION":20,
						"TEXCOORD_0":21,
						"NORMAL":22
					},
					"indices":23,
					"material":2
				}
			]
		}
	],
	"accessors":[
		{
			"bufferView":0,
			"componentType":5126,
			"count":1245,
			"max":[
				1.0576835870742798,
				4.298780918121338,
				1.1523666381835938
			],
			"min":[
				-1.0576831102371216,
				-0.7319786548614502,
				-1.6546947956085205
			],
			"type":"VEC3"
		},
		{
			"bufferView":1,
			"componentType":5126,
			"count":1245,
			"type":"VEC2"
		},
		{
			"bufferView":2,
			"componentType":5126,
			"count":1245,
			"type":"VEC3"
		},
		{
			"bufferView":3,
			"componentType":5123,
			"count":5160,
			"type":"SCALAR"
		},
		{
			"bufferView":4,
			"componentType":5126,
			"count":10,
			"max":[
				0.2595852017402649,
				2.603668212890625,
				-1.1257685422897339
			],
			"min":[
				-0.25958502292633057,
				2.517805814743042,
				-1.3051731586456299
			],
			"type":"VEC3"
		},
		{
			"bufferView":5,
			"componentType":5126,
			"count":10,
			"type":"VEC2"
		},
		{
			"bufferView":6,
			"componentType":5126,
			"count":10,
			"type":"VEC3"
		},
		{
			"bufferView":7,
			"componentType":5123,
			"count":24,
			"type":"SCALAR"
		},
		{
			"bufferView":8,
			"componentType":5126,
			"count":1780,
			"max":[
				0.9607298970222473,
				3.3270955085754395,
				0.9607295989990234
			],
			"min":[
				-0.960729718208313,
				0.1653786152601242,
				-2.372837781906128
			],
			"type":"VEC3"
		},
		{
			"bufferView":9,
			"componentType":5126,
			"count":1780,
			"type":"VEC2"
		},
		{
			"bufferView":10,
			"componentType":5126,
			"count":1780,
			"type":"VEC3"
		},
		{
			"bufferView":11,
			"componentType":5123,
			"count":3936,
			"type":"SCALAR"
		},
		{
			"bufferView":12,
			"componentType":5126,
			"count":31045,
			"max":[
				0.452205091714859,
				1.9441163539886475,
				-1.0961087942123413
			],
			"min":[
				-0.4283827841281891,
				1.5444207191467285,
				-1.2325499057769775
			],
			"type":"VEC3"
		},
		{
			"bufferView":13,
			"componentType":5126,
			"count":31045,
			"type":"VEC2"
		},
		{
			"bufferView":14,
			"componentType":5126,
			"count":31045,
			"type":"VEC3"
		},
		{
			"bufferView":15,
			"componentType":5123,
			"count":42888,
			"type":"SCALAR"
		},
		{
			"bufferView":16,
			"componentType":5126,
			"count":158,
			"max":[
				1.4532029628753662,
				0.9209963083267212,
				1
			],
			"min":[
				-10.86181640625,
				-0.9209963083267212,
				-1.0949941873550415
			],
			"type":"VEC3"
		},
		{
			"bufferView":17,
			"componentType":5126,
			"count":158,
			"type":"VEC2"
		},
		{
			"bufferView":18,
			"componentType":5126,
			"count":158,
			"type":"VEC3"
		},
		{
			"bufferView":19,
			"componentType":5123,
			"count":384,
			"type":"SCALAR"
		},
		{
			"bufferView":20,
			"componentType":5126,
			"count":693,
			"max":[
				1.9275044202804565,
				0.266789048910141,
				1.9275044202804565
			],
			"min":[
				-1.9275044202804565,
				-1.0014640092849731,
				-1.9275044202804565
			],
			"type":"VEC3"
		},
		{
			"bufferView":21,
			"componentType":5126,
			"count":693,
			"type":"VEC2"
		},
		{
			"bufferView":22,
			"componentType":5126,
			"count":693,
			"type":"VEC3"
		},
		{
			"bufferView":23,
			"componentType":5123,
			"count":1986,
			"type":"SCALAR"
		}
	],
	"bufferViews":[
		{
			"buffer":0,
			"byteLength":14940,
			"byteOffset":0,
			"target":34962
		},
		{
			"buffer":0,
			"byteLength":9960,
			"byteOffset":14940,
			"target":34962
		},
		{
			"buffer":0,
			"byteLength":14940,
			"byteOffset":24900,
			"target":34962
		},
		{
			"buffer":0,
			"byteLength":10320,
			"byteOffset":39840,
			"target":34963
		},
		{
			"buffer":0,
			"byteLength":120,
			"byteOffset":50160,
			"target":34962
		},
		{
			"buffer":0,
			"byteLength":80,
			"byteOffset":50280,
			"target":34962
		},
		{
			"buffer":0,
			"byteLength":120,
			"byteOffset":50360,
			"target":34962
		},
		{
			"buffer":0,
			"byteLength":48,
			"byteOffset":50480,
			"target":34963
		},
		{
			"buffer":0,
			"byteLength":21360,
			"byteOffset":50528,
			"target":34962
		},
		{
			"buffer":0,
			"byteLength":14240,
			"byteOffset":71888,
			"target":34962
		},
		{
			"buffer":0,
			"byteLength":21360,
			"byteOffset":86128,
			"target":34962
		},
		{
			"buffer":0,
			"byteLength":7872,
			"byteOffset":107488,
			"target":34963
		},
		{
			"buffer":0,
			"byteLength":372540,
			"byteOffset":115360,
			"target":34962
		},
		{
			"buffer":0,
			"byteLength":248360,
			"byteOffset":487900,
			"target":34962
		},
		{
			"buffer":0,
			"byteLength":372540,
			"byteOffset":736260,
			"target":34962
		},
		{
			"buffer":0,
			"byteLength":85776,
			"byteOffset":1108800,
			"target":34963
		},
		{
			"buffer":0,
			"byteLength":1896,
			"byteOffset":1194576,
			"target":34962
		},
		{
			"buffer":0,
			"byteLength":1264,
			"byteOffset":1196472,
			"target":34962
		},
		{
			"buffer":0,
			"byteLength":1896,
			"byteOffset":1197736,
			"target":34962
		},
		{
			"buffer":0,
			"byteLength":768,
			"byteOffset":1199632,
			"target":34963
		},
		{
			"buffer":0,
			"byteLength":8316,
			"byteOffset":1200400,
			"target":34962
		},
		{
			"buffer":0,
			"byteLength":5544,
			"byteOffset":1208716,
			"target":34962
		},
		{
			"buffer":0,
			"byteLength":8316,
			"byteOffset":1214260,
			"target":34962
		},
		{
			"buffer":0,
			"byteLength":3972,
			"byteOffset":1222576,
			"target":34963
		}
	],
	"buffers":[
		{
			"byteLength":1226548,
			"uri":"data:application/octet-stream;base64,"
		}
	]
}
